<svg xmlns="http://www.w3.org/2000/svg" width="127" height="38" fill="none"><path fill="#EC1C24" d="m39.583 37.193-4.768-8.996h-5.832l-.379-.792-9.61-20.133-3.318 6.963 5.329 5.378h-7.853L9.464 27.4l-.377.796H.24v-2.783h7.088l3.687-7.788.376-.795h2.94l-2.007-2.026.42-.883 4.992-10.48L18.99.806l1.257 2.633 10.49 21.974h5.753l2.99 5.642 4.012-8.224 1.169-2.398 2.772 4.98h16.666l.405.678 3.035 5.083 6.646-13.565.382-.78h2.922l-2.038-2.025L82.276.829l1.238 2.615 10.398 21.97h32.847v2.783H92.151l-.376-.796-9.539-20.15-3.411 6.984 5.414 5.378h-7.937l-7.392 15.09-1.13 2.304-1.314-2.203-3.946-6.607H45.797l-.973-1.749z"/><path fill="#fff" d="M35.63 11.42a5.9 5.9 0 0 1 2.39 2.275q.851 1.458.852 3.33 0 1.87-.87 3.328a6 6 0 0 1-2.427 2.275q-1.557.816-3.553.816h-5.33v-12.84h5.44q1.959 0 3.498.817m-1.511 9.08a3.5 3.5 0 0 0 1.328-1.402q.476-.9.476-2.055t-.504-2.073a3.63 3.63 0 0 0-1.373-1.421q-.87-.505-1.97-.505h-2.49v7.962h2.619q1.062-.001 1.914-.505M47.48 23.445l-2.033-3.67h-2.949v3.67h-2.894v-12.84h5.569q2.508 0 3.883 1.164 1.374 1.166 1.374 3.293 0 1.485-.614 2.54-.614 1.056-1.786 1.606l2.73 4.238zm-4.982-6.09h2.675q1.209 0 1.858-.56.65-.56.65-1.642 0-1.063-.65-1.605-.65-.541-1.858-.541h-2.675zM51.694 10.605h9.762v2.402h-6.868v2.789h6.172v2.403h-6.172v2.843h7.07v2.403h-9.964zM71.621 10.605h2.748v12.84h-2.638l-6.209-8.255v8.255h-2.766v-12.84h2.637l6.228 8.29zM89.983 10.605h2.898v10.308h5.504v2.532h-8.402zM99.43 10.605h2.898v12.84H99.43zM112.38 10.605h2.751v12.84h-2.641l-6.218-8.255v8.255h-2.77v-12.84h2.641l6.237 8.29zM126.56 13.007h-6.879v2.789h6.181v2.403h-6.181v2.843h7.08v2.403h-9.978v-12.84h9.777z"/></svg>